<svg width="56" height="56" viewBox="0 0 56 56" fill="none" xmlns="http://www.w3.org/2000/svg">
<path d="M10.3733 38.2694V23.6428H19.8376C19.6115 23.784 19.3755 23.9045 19.1394 24.0157C17.3636 24.8617 16.1422 26.5438 15.7522 28.4375L14.4792 34.7236L14.4892 34.9051C12.6829 35.3483 11.1637 36.5769 10.3833 38.2694H10.3733Z" fill="#34CB79"/>
<path d="M38.6879 2.61703L42.6509 2.13306L49.0908 14.2323V16.1682L47.6047 17.6201H33.7342L32.7434 15.6842L33.2388 12.2964L38.6879 2.61703Z" fill="#34CB79"/>
<mask id="path-3-inside-1" fill="white">
<path fill-rule="evenodd" clip-rule="evenodd" d="M46.2229 42.9781C50.0358 42.9781 53.1379 46.0237 53.1379 49.7674V52.6771V54.6169H3.74525L3.74512 52.6771V49.7674C3.74512 47.0438 5.3909 44.6958 7.75394 43.6142L9.43396 38.1168C9.48107 37.965 9.54253 37.8219 9.60415 37.6784C9.62707 37.6251 9.65001 37.5717 9.67225 37.5177V22.0984C9.67225 20.2496 10.7185 18.5873 12.4028 17.7609L13.6237 17.1613V14.8512H11.648V11.9415C11.648 10.3375 12.9778 9.03185 14.6115 9.03185H20.5386C22.1724 9.03185 23.5022 10.3375 23.5022 11.9415V14.8512H21.5265V17.1613L22.7483 17.7609C23.6662 18.2108 24.3931 18.9325 24.8735 19.8091C25.2252 19.7461 25.5864 19.7007 25.9699 19.7007C26.9062 19.7007 27.7401 19.911 28.5027 20.341C29.0917 20.0682 30.0448 19.7007 30.913 19.7007C33.0744 19.7007 34.7177 20.823 36.1686 21.8138L36.1707 21.8152C36.7017 22.178 37.2145 22.5076 37.7345 22.7984L40.2957 21.1214V18.7308H36.5773C34.2697 18.7308 32.3929 16.8881 32.3929 14.6225C32.3929 13.9879 32.5458 13.3528 32.8343 12.7855L37.5406 3.544C38.2539 2.14267 39.688 1.27271 41.2836 1.27271C42.8792 1.27271 44.3132 2.14267 45.0266 3.54305L49.7329 12.7845C50.0214 13.3528 50.1743 13.9879 50.1743 14.6225C50.1743 16.8881 48.2975 18.7308 45.9899 18.7308H42.2714V21.1214L47.7582 24.714L46.6623 26.328L42.2714 23.4533V25.9709L47.7582 29.5635L46.6623 31.1774L42.2714 28.3028V30.8204L47.7582 34.4129L46.6623 36.0269L42.2714 33.1523V35.6698L47.7582 39.2615L46.6623 40.8754L42.2714 38.0008V41.116C43.7561 41.3253 45.0898 41.9945 46.1143 42.9781H46.2229ZM34.6016 13.6526C34.4496 13.9524 34.3686 14.2877 34.3686 14.6225C34.3686 15.8183 35.3594 16.791 36.5773 16.791H45.9899C47.2078 16.791 48.1986 15.8183 48.1986 14.6225C48.1986 14.2877 48.1185 13.9524 47.9656 13.6526L43.2593 4.41113C43.0408 3.98253 42.6872 3.66429 42.2714 3.45875H40.2957C39.88 3.66429 39.5264 3.98253 39.3079 4.41113L34.6016 13.6526ZM46.2229 48.6995V47.8276C46.2229 45.4853 44.5226 43.5261 42.2714 43.0762V43.948C42.2714 46.2894 43.9717 48.2496 46.2229 48.6995ZM36.3443 48.6995C38.5955 48.2496 40.2957 46.2904 40.2957 43.948V43.0762C38.0446 43.5261 36.3443 45.4853 36.3443 47.8276V48.6995ZM14.6115 10.9716C14.0674 10.9716 13.6237 11.4073 13.6237 11.9415V12.9114H21.5265V11.9415C21.5265 11.4073 21.0827 10.9716 20.5386 10.9716H14.6115ZM15.5994 18.3604L13.286 19.4961C12.275 19.9915 11.648 20.9888 11.648 22.0984V34.8496C12.2615 34.349 12.9551 33.9503 13.7153 33.6836L14.8715 28.0097C15.3148 25.8364 16.7314 23.9894 18.6618 23.0712C19.3564 22.7401 20.0153 22.2902 20.7123 21.8143C21.4059 21.3407 22.1458 20.8392 22.9629 20.4428C22.6822 20.0469 22.3127 19.7163 21.8641 19.4961L19.5508 18.3604V14.8512H15.5994V18.3604ZM10.6601 44.9179C7.93675 44.9179 5.72083 47.0935 5.72083 49.7674V52.6771H51.1621V49.7674C51.1621 47.5775 49.6664 45.7443 47.6323 45.1438C47.995 45.9674 48.1986 46.8743 48.1986 47.8276V50.7373H47.2107C44.6938 50.7373 42.4938 49.4056 41.2836 47.427C40.0734 49.4056 37.8734 50.7373 35.3565 50.7373H34.3686V47.8276C34.3686 44.4145 36.9497 41.5891 40.2957 41.116V38.0008L35.9039 40.8745L34.808 39.2605L40.2957 35.6689V33.1513L35.9039 36.025L34.808 34.4111L40.2957 30.8194V28.3019L35.9039 31.1755L34.808 29.5616L40.2957 25.9699V23.4524L35.9039 26.327L34.808 24.7131L35.9174 23.9875C35.6213 23.7957 35.327 23.6016 35.0425 23.4065C33.7126 22.4977 32.4561 21.6405 30.913 21.6405C30.3284 21.6405 29.3898 22.0468 28.9354 22.3021L28.3725 22.6198L27.8506 22.2391C27.2867 21.8247 26.7069 21.6405 25.9699 21.6405C24.4269 21.6405 23.1704 22.4977 21.8405 23.4055C21.1117 23.9042 20.3568 24.4194 19.5233 24.8158C18.6527 25.2302 17.9296 25.916 17.4318 26.7637C18.1389 26.9934 18.6609 27.3268 19.1114 27.6227C19.7997 28.0736 20.3443 28.4297 21.5265 28.4297V30.3695C19.7452 30.3695 18.7863 29.742 18.0135 29.2358C17.6026 28.9672 17.2413 28.7342 16.7671 28.5879L15.8077 33.2986C15.8464 33.2973 15.884 33.2932 15.9215 33.2891C15.9665 33.2841 16.0113 33.2792 16.0576 33.2792H19.4612L20.7996 34.3498L22.538 35.219H16.0576C13.8595 35.219 11.9581 36.608 11.3267 38.6747L10.0022 43.0113C10.2197 42.9909 10.4377 42.9781 10.6601 42.9781H20.5386V44.9179H10.6601ZM25.159 35.219H26.4658V33.2792H25.159V35.219Z"/>
</mask>
<path fill-rule="evenodd" clip-rule="evenodd" d="M46.2229 42.9781C50.0358 42.9781 53.1379 46.0237 53.1379 49.7674V52.6771V54.6169H3.74525L3.74512 52.6771V49.7674C3.74512 47.0438 5.3909 44.6958 7.75394 43.6142L9.43396 38.1168C9.48107 37.965 9.54253 37.8219 9.60415 37.6784C9.62707 37.6251 9.65001 37.5717 9.67225 37.5177V22.0984C9.67225 20.2496 10.7185 18.5873 12.4028 17.7609L13.6237 17.1613V14.8512H11.648V11.9415C11.648 10.3375 12.9778 9.03185 14.6115 9.03185H20.5386C22.1724 9.03185 23.5022 10.3375 23.5022 11.9415V14.8512H21.5265V17.1613L22.7483 17.7609C23.6662 18.2108 24.3931 18.9325 24.8735 19.8091C25.2252 19.7461 25.5864 19.7007 25.9699 19.7007C26.9062 19.7007 27.7401 19.911 28.5027 20.341C29.0917 20.0682 30.0448 19.7007 30.913 19.7007C33.0744 19.7007 34.7177 20.823 36.1686 21.8138L36.1707 21.8152C36.7017 22.178 37.2145 22.5076 37.7345 22.7984L40.2957 21.1214V18.7308H36.5773C34.2697 18.7308 32.3929 16.8881 32.3929 14.6225C32.3929 13.9879 32.5458 13.3528 32.8343 12.7855L37.5406 3.544C38.2539 2.14267 39.688 1.27271 41.2836 1.27271C42.8792 1.27271 44.3132 2.14267 45.0266 3.54305L49.7329 12.7845C50.0214 13.3528 50.1743 13.9879 50.1743 14.6225C50.1743 16.8881 48.2975 18.7308 45.9899 18.7308H42.2714V21.1214L47.7582 24.714L46.6623 26.328L42.2714 23.4533V25.9709L47.7582 29.5635L46.6623 31.1774L42.2714 28.3028V30.8204L47.7582 34.4129L46.6623 36.0269L42.2714 33.1523V35.6698L47.7582 39.2615L46.6623 40.8754L42.2714 38.0008V41.116C43.7561 41.3253 45.0898 41.9945 46.1143 42.9781H46.2229ZM34.6016 13.6526C34.4496 13.9524 34.3686 14.2877 34.3686 14.6225C34.3686 15.8183 35.3594 16.791 36.5773 16.791H45.9899C47.2078 16.791 48.1986 15.8183 48.1986 14.6225C48.1986 14.2877 48.1185 13.9524 47.9656 13.6526L43.2593 4.41113C43.0408 3.98253 42.6872 3.66429 42.2714 3.45875H40.2957C39.88 3.66429 39.5264 3.98253 39.3079 4.41113L34.6016 13.6526ZM46.2229 48.6995V47.8276C46.2229 45.4853 44.5226 43.5261 42.2714 43.0762V43.948C42.2714 46.2894 43.9717 48.2496 46.2229 48.6995ZM36.3443 48.6995C38.5955 48.2496 40.2957 46.2904 40.2957 43.948V43.0762C38.0446 43.5261 36.3443 45.4853 36.3443 47.8276V48.6995ZM14.6115 10.9716C14.0674 10.9716 13.6237 11.4073 13.6237 11.9415V12.9114H21.5265V11.9415C21.5265 11.4073 21.0827 10.9716 20.5386 10.9716H14.6115ZM15.5994 18.3604L13.286 19.4961C12.275 19.9915 11.648 20.9888 11.648 22.0984V34.8496C12.2615 34.349 12.9551 33.9503 13.7153 33.6836L14.8715 28.0097C15.3148 25.8364 16.7314 23.9894 18.6618 23.0712C19.3564 22.7401 20.0153 22.2902 20.7123 21.8143C21.4059 21.3407 22.1458 20.8392 22.9629 20.4428C22.6822 20.0469 22.3127 19.7163 21.8641 19.4961L19.5508 18.3604V14.8512H15.5994V18.3604ZM10.6601 44.9179C7.93675 44.9179 5.72083 47.0935 5.72083 49.7674V52.6771H51.1621V49.7674C51.1621 47.5775 49.6664 45.7443 47.6323 45.1438C47.995 45.9674 48.1986 46.8743 48.1986 47.8276V50.7373H47.2107C44.6938 50.7373 42.4938 49.4056 41.2836 47.427C40.0734 49.4056 37.8734 50.7373 35.3565 50.7373H34.3686V47.8276C34.3686 44.4145 36.9497 41.5891 40.2957 41.116V38.0008L35.9039 40.8745L34.808 39.2605L40.2957 35.6689V33.1513L35.9039 36.025L34.808 34.4111L40.2957 30.8194V28.3019L35.9039 31.1755L34.808 29.5616L40.2957 25.9699V23.4524L35.9039 26.327L34.808 24.7131L35.9174 23.9875C35.6213 23.7957 35.327 23.6016 35.0425 23.4065C33.7126 22.4977 32.4561 21.6405 30.913 21.6405C30.3284 21.6405 29.3898 22.0468 28.9354 22.3021L28.3725 22.6198L27.8506 22.2391C27.2867 21.8247 26.7069 21.6405 25.9699 21.6405C24.4269 21.6405 23.1704 22.4977 21.8405 23.4055C21.1117 23.9042 20.3568 24.4194 19.5233 24.8158C18.6527 25.2302 17.9296 25.916 17.4318 26.7637C18.1389 26.9934 18.6609 27.3268 19.1114 27.6227C19.7997 28.0736 20.3443 28.4297 21.5265 28.4297V30.3695C19.7452 30.3695 18.7863 29.742 18.0135 29.2358C17.6026 28.9672 17.2413 28.7342 16.7671 28.5879L15.8077 33.2986C15.8464 33.2973 15.884 33.2932 15.9215 33.2891C15.9665 33.2841 16.0113 33.2792 16.0576 33.2792H19.4612L20.7996 34.3498L22.538 35.219H16.0576C13.8595 35.219 11.9581 36.608 11.3267 38.6747L10.0022 43.0113C10.2197 42.9909 10.4377 42.9781 10.6601 42.9781H20.5386V44.9179H10.6601ZM25.159 35.219H26.4658V33.2792H25.159V35.219Z" fill="#322153"/>
<path d="M53.1379 54.6169V55.6169H54.1379V54.6169H53.1379ZM3.74525 54.6169L2.74525 54.6169L2.74532 55.6169H3.74525V54.6169ZM3.74512 52.6771H2.74512V52.6771L3.74512 52.6771ZM7.75394 43.6142L8.17015 44.5234L8.57889 44.3363L8.71027 43.9064L7.75394 43.6142ZM9.43396 38.1168L8.47885 37.8206L8.47763 37.8246L9.43396 38.1168ZM9.60415 37.6784L10.523 38.0731H10.523L9.60415 37.6784ZM9.67225 37.5177L10.5968 37.8989L10.6722 37.7158V37.5177H9.67225ZM12.4028 17.7609L12.8433 18.6587L12.8436 18.6585L12.4028 17.7609ZM13.6237 17.1613L14.0645 18.0589L14.6237 17.7843V17.1613H13.6237ZM13.6237 14.8512H14.6237V13.8512H13.6237V14.8512ZM11.648 14.8512H10.648V15.8512H11.648V14.8512ZM23.5022 14.8512V15.8512H24.5022V14.8512H23.5022ZM21.5265 14.8512V13.8512H20.5265V14.8512H21.5265ZM21.5265 17.1613H20.5265V17.7845L21.086 18.0591L21.5265 17.1613ZM22.7483 17.7609L22.3078 18.6586L22.3082 18.6588L22.7483 17.7609ZM24.8735 19.8091L23.9966 20.2897L24.3421 20.9202L25.0499 20.7935L24.8735 19.8091ZM28.5027 20.341L28.0116 21.212L28.458 21.4638L28.923 21.2484L28.5027 20.341ZM36.1686 21.8138L36.7329 20.9882L36.7326 20.988L36.1686 21.8138ZM36.1707 21.8152L35.6064 22.6408L35.6066 22.641L36.1707 21.8152ZM37.7345 22.7984L37.2464 23.6712L37.7753 23.9669L38.2822 23.635L37.7345 22.7984ZM40.2957 21.1214L40.8435 21.9581L41.2957 21.662V21.1214H40.2957ZM40.2957 18.7308H41.2957V17.7308H40.2957V18.7308ZM32.8343 12.7855L31.9432 12.3317L31.9428 12.3323L32.8343 12.7855ZM37.5406 3.544L38.4317 3.9978L38.4317 3.99768L37.5406 3.544ZM45.0266 3.54305L45.9177 3.08925L45.9177 3.08913L45.0266 3.54305ZM49.7329 12.7845L50.6246 12.3319L50.624 12.3307L49.7329 12.7845ZM42.2714 18.7308V17.7308H41.2714V18.7308H42.2714ZM42.2714 21.1214H41.2714V21.6619L41.7237 21.958L42.2714 21.1214ZM47.7582 24.714L48.5855 25.2758L49.1568 24.4345L48.306 23.8774L47.7582 24.714ZM46.6623 26.328L46.1145 27.1646L46.9372 27.7032L47.4896 26.8897L46.6623 26.328ZM42.2714 23.4533L42.8192 22.6167L41.2714 21.6034V23.4533H42.2714ZM42.2714 25.9709H41.2714V26.5114L41.7237 26.8075L42.2714 25.9709ZM47.7582 29.5635L48.5855 30.1252L49.1568 29.2839L48.306 28.7269L47.7582 29.5635ZM46.6623 31.1774L46.1145 32.0141L46.9372 32.5527L47.4896 31.7392L46.6623 31.1774ZM42.2714 28.3028L42.8192 27.4662L41.2714 26.4529V28.3028H42.2714ZM42.2714 30.8204H41.2714V31.3609L41.7237 31.657L42.2714 30.8204ZM47.7582 34.4129L48.5855 34.9747L49.1568 34.1334L48.306 33.5763L47.7582 34.4129ZM46.6623 36.0269L46.1145 36.8636L46.9372 37.4022L47.4896 36.5887L46.6623 36.0269ZM42.2714 33.1523L42.8192 32.3156L41.2714 31.3023V33.1523H42.2714ZM42.2714 35.6698H41.2714V36.2104L41.7238 36.5065L42.2714 35.6698ZM47.7582 39.2615L48.5855 39.8232L49.1568 38.9818L48.3059 38.4248L47.7582 39.2615ZM46.6623 40.8754L46.1145 41.7121L46.9372 42.2507L47.4896 41.4372L46.6623 40.8754ZM42.2714 38.0008L42.8192 37.1642L41.2714 36.1509V38.0008H42.2714ZM42.2714 41.116H41.2714V41.9849L42.1318 42.1062L42.2714 41.116ZM46.1143 42.9781L45.4218 43.6995L45.712 43.9781H46.1143V42.9781ZM34.6016 13.6526L33.7105 13.1988L33.7096 13.2005L34.6016 13.6526ZM47.9656 13.6526L47.0745 14.1064L47.0748 14.107L47.9656 13.6526ZM43.2593 4.41113L44.1504 3.95732L44.1502 3.95692L43.2593 4.41113ZM42.2714 3.45875L42.7146 2.5623L42.5051 2.45875H42.2714V3.45875ZM40.2957 3.45875V2.45875H40.0621L39.8526 2.5623L40.2957 3.45875ZM39.3079 4.41113L38.417 3.95692L38.4168 3.95732L39.3079 4.41113ZM46.2229 48.6995L46.0269 49.6801L47.2229 49.9191V48.6995H46.2229ZM42.2714 43.0762L42.4674 42.0956L41.2714 41.8565V43.0762H42.2714ZM36.3443 48.6995H35.3443V49.9191L36.5403 49.6801L36.3443 48.6995ZM40.2957 43.0762H41.2957V41.8565L40.0998 42.0956L40.2957 43.0762ZM13.6237 12.9114H12.6237V13.9114H13.6237V12.9114ZM21.5265 12.9114V13.9114H22.5265V12.9114H21.5265ZM13.286 19.4961L13.726 20.3941L13.7267 20.3938L13.286 19.4961ZM15.5994 18.3604L16.04 19.2581L16.5994 18.9835V18.3604H15.5994ZM11.648 34.8496H10.648V36.9561L12.2801 35.6244L11.648 34.8496ZM13.7153 33.6836L14.0463 34.6273L14.5819 34.4394L14.6952 33.8833L13.7153 33.6836ZM14.8715 28.0097L13.8917 27.8098L13.8916 27.81L14.8715 28.0097ZM18.6618 23.0712L19.0914 23.9742L19.092 23.9739L18.6618 23.0712ZM20.7123 21.8143L20.1484 20.9884L20.1484 20.9884L20.7123 21.8143ZM22.9629 20.4428L23.3994 21.3425L24.4615 20.8273L23.7787 19.8644L22.9629 20.4428ZM21.8641 19.4961L21.4235 20.3938L21.8641 19.4961ZM19.5508 18.3604H18.5508V18.9835L19.1101 19.2581L19.5508 18.3604ZM19.5508 14.8512H20.5508V13.8512H19.5508V14.8512ZM15.5994 14.8512V13.8512H14.5994V14.8512H15.5994ZM5.72083 52.6771H4.72083V53.6771H5.72083V52.6771ZM51.1621 52.6771V53.6771H52.1621V52.6771H51.1621ZM47.6323 45.1438L47.9154 44.1847L45.8484 43.5745L46.7171 45.5469L47.6323 45.1438ZM48.1986 50.7373V51.7373H49.1986V50.7373H48.1986ZM41.2836 47.427L42.1367 46.9052L41.2836 45.5104L40.4305 46.9052L41.2836 47.427ZM34.3686 50.7373H33.3686V51.7373H34.3686V50.7373ZM40.2957 41.116L40.4357 42.1062L41.2957 41.9846V41.116H40.2957ZM40.2957 38.0008H41.2957V36.1514L39.7482 37.164L40.2957 38.0008ZM35.9039 40.8745L35.0766 41.4362L35.6289 42.2495L36.4515 41.7113L35.9039 40.8745ZM34.808 39.2605L34.2604 38.4238L33.4094 38.9808L33.9807 39.8223L34.808 39.2605ZM40.2957 35.6689L40.8434 36.5056L41.2957 36.2095V35.6689H40.2957ZM40.2957 33.1513H41.2957V31.302L39.7482 32.3145L40.2957 33.1513ZM35.9039 36.025L35.0766 36.5868L35.6289 37.4001L36.4515 36.8618L35.9039 36.025ZM34.808 34.4111L34.2604 33.5743L33.4094 34.1313L33.9807 34.9728L34.808 34.4111ZM40.2957 30.8194L40.8434 31.6561L41.2957 31.3601V30.8194H40.2957ZM40.2957 28.3019H41.2957V26.4525L39.7482 27.4651L40.2957 28.3019ZM35.9039 31.1755L35.0766 31.7373L35.6289 32.5506L36.4515 32.0123L35.9039 31.1755ZM34.808 29.5616L34.2604 28.7249L33.4094 29.2819L33.9807 30.1233L34.808 29.5616ZM40.2957 25.9699L40.8434 26.8067L41.2957 26.5106V25.9699H40.2957ZM40.2957 23.4524H41.2957V21.6027L39.7481 22.6157L40.2957 23.4524ZM35.9039 26.327L35.0766 26.8888L35.6289 27.7022L36.4516 27.1637L35.9039 26.327ZM34.808 24.7131L34.2607 23.8761L33.4092 24.433L33.9807 25.2748L34.808 24.7131ZM35.9174 23.9875L36.4648 24.8245L37.7508 23.9834L36.461 23.1482L35.9174 23.9875ZM35.0425 23.4065L35.6079 22.5817L35.6067 22.5808L35.0425 23.4065ZM28.9354 22.3021L28.4456 21.4302L28.4438 21.4312L28.9354 22.3021ZM28.3725 22.6198L27.7831 23.4277L28.3033 23.8072L28.8641 23.4907L28.3725 22.6198ZM27.8506 22.2391L27.2584 23.0449L27.2612 23.0469L27.8506 22.2391ZM21.8405 23.4055L21.2767 22.5796L21.2758 22.5802L21.8405 23.4055ZM19.5233 24.8158L19.0938 23.9128L19.0935 23.9129L19.5233 24.8158ZM17.4318 26.7637L16.5695 26.2573L15.9394 27.3303L17.1229 27.7148L17.4318 26.7637ZM19.1114 27.6227L18.5623 28.4585L18.5634 28.4593L19.1114 27.6227ZM21.5265 28.4297H22.5265V27.4297H21.5265V28.4297ZM21.5265 30.3695V31.3695H22.5265V30.3695H21.5265ZM18.0135 29.2358L18.5616 28.3993L18.5605 28.3986L18.0135 29.2358ZM16.7671 28.5879L17.062 27.6324L16.0075 27.3069L15.7873 28.3883L16.7671 28.5879ZM15.8077 33.2986L14.8279 33.099L14.575 34.3404L15.8412 34.2981L15.8077 33.2986ZM15.9215 33.2891L16.0307 34.2831L16.0307 34.2831L15.9215 33.2891ZM19.4612 33.2792L20.0859 32.4983L19.812 32.2792H19.4612V33.2792ZM20.7996 34.3498L20.175 35.1307L20.2577 35.1969L20.3524 35.2442L20.7996 34.3498ZM22.538 35.219V36.219L22.9852 34.3246L22.538 35.219ZM11.3267 38.6747L10.3703 38.3825L10.3703 38.3826L11.3267 38.6747ZM10.0022 43.0113L9.04579 42.7192L8.61 44.146L10.0954 44.0069L10.0022 43.0113ZM20.5386 42.9781H21.5386V41.9781H20.5386V42.9781ZM20.5386 44.9179V45.9179H21.5386V44.9179H20.5386ZM25.159 35.219H24.159V36.219H25.159V35.219ZM26.4658 35.219V36.219H27.4658V35.219H26.4658ZM26.4658 33.2792H27.4658V32.2792H26.4658V33.2792ZM25.159 33.2792V32.2792H24.159V33.2792H25.159ZM54.1379 49.7674C54.1379 45.4542 50.5708 41.9781 46.2229 41.9781V43.9781C49.5009 43.9781 52.1379 46.5932 52.1379 49.7674H54.1379ZM54.1379 52.6771V49.7674H52.1379V52.6771H54.1379ZM54.1379 54.6169V52.6771H52.1379V54.6169H54.1379ZM3.74525 55.6169H53.1379V53.6169H3.74525V55.6169ZM2.74512 52.6771L2.74525 54.6169L4.74525 54.6168L4.74512 52.677L2.74512 52.6771ZM2.74512 49.7674V52.6771H4.74512V49.7674H2.74512ZM7.33773 42.7049C4.64261 43.9385 2.74512 46.6273 2.74512 49.7674H4.74512C4.74512 47.4603 6.13918 45.4531 8.17015 44.5234L7.33773 42.7049ZM8.47763 37.8246L6.7976 43.3219L8.71027 43.9064L10.3903 38.4091L8.47763 37.8246ZM8.68533 37.2838C8.62689 37.4198 8.54404 37.6104 8.47886 37.8206L10.3891 38.4131C10.4181 38.3195 10.4582 38.224 10.523 38.0731L8.68533 37.2838ZM8.74773 37.1366C8.72876 37.1826 8.70873 37.2293 8.68533 37.2838L10.523 38.0731C10.5454 38.0209 10.5713 37.9607 10.5968 37.8989L8.74773 37.1366ZM8.67225 22.0984V37.5177H10.6722V22.0984H8.67225ZM11.9624 16.8631C9.94186 17.8544 8.67225 19.8611 8.67225 22.0984H10.6722C10.6722 20.6381 11.4951 19.3201 12.8433 18.6587L11.9624 16.8631ZM13.1829 16.2637L11.962 16.8633L12.8436 18.6585L14.0645 18.0589L13.1829 16.2637ZM12.6237 14.8512V17.1613H14.6237V14.8512H12.6237ZM11.648 15.8512H13.6237V13.8512H11.648V15.8512ZM10.648 11.9415V14.8512H12.648V11.9415H10.648ZM14.6115 8.03185C12.4429 8.03185 10.648 9.76801 10.648 11.9415H12.648C12.648 10.907 13.5127 10.0319 14.6115 10.0319V8.03185ZM20.5386 8.03185H14.6115V10.0319H20.5386V8.03185ZM24.5022 11.9415C24.5022 9.76801 22.7073 8.03185 20.5386 8.03185V10.0319C21.6375 10.0319 22.5022 10.907 22.5022 11.9415H24.5022ZM24.5022 14.8512V11.9415H22.5022V14.8512H24.5022ZM21.5265 15.8512H23.5022V13.8512H21.5265V15.8512ZM22.5265 17.1613V14.8512H20.5265V17.1613H22.5265ZM23.1888 16.8632L21.967 16.2636L21.086 18.0591L22.3078 18.6586L23.1888 16.8632ZM25.7505 19.3285C25.1765 18.2813 24.3016 17.4086 23.1884 16.863L22.3082 18.6588C23.0308 19.013 23.6097 19.5838 23.9966 20.2897L25.7505 19.3285ZM25.9699 18.7007C25.5072 18.7007 25.0832 18.7557 24.6972 18.8248L25.0499 20.7935C25.3672 20.7366 25.6657 20.7007 25.9699 20.7007V18.7007ZM28.9939 19.4699C28.0705 18.9492 27.0653 18.7007 25.9699 18.7007V20.7007C26.7471 20.7007 27.4098 20.8727 28.0116 21.212L28.9939 19.4699ZM30.913 18.7007C29.8155 18.7007 28.6957 19.1495 28.0825 19.4336L28.923 21.2484C29.4876 20.9869 30.2742 20.7007 30.913 20.7007V18.7007ZM36.7326 20.988C35.3111 20.0172 33.4254 18.7007 30.913 18.7007V20.7007C32.7235 20.7007 34.1244 21.6287 35.6047 22.6396L36.7326 20.988ZM36.7349 20.9896L36.7329 20.9882L35.6044 22.6394L35.6064 22.6408L36.7349 20.9896ZM38.2225 21.9256C37.7382 21.6547 37.2523 21.343 36.7347 20.9895L35.6066 22.641C36.1512 23.0129 36.6908 23.3605 37.2464 23.6712L38.2225 21.9256ZM39.748 20.2848L37.1867 21.9617L38.2822 23.635L40.8435 21.9581L39.748 20.2848ZM39.2957 18.7308V21.1214H41.2957V18.7308H39.2957ZM36.5773 19.7308H40.2957V17.7308H36.5773V19.7308ZM31.3929 14.6225C31.3929 17.4576 33.7348 19.7308 36.5773 19.7308V17.7308C34.8046 17.7308 33.3929 16.3186 33.3929 14.6225H31.3929ZM31.9428 12.3323C31.5835 13.0391 31.3929 13.8294 31.3929 14.6225H33.3929C33.3929 14.1464 33.5081 13.6665 33.7257 13.2387L31.9428 12.3323ZM36.6495 3.0902L31.9432 12.3317L33.7254 13.2393L38.4317 3.9978L36.6495 3.0902ZM41.2836 0.272705C39.319 0.272705 37.5367 1.34742 36.6494 3.09032L38.4317 3.99768C38.9712 2.93793 40.057 2.27271 41.2836 2.27271V0.272705ZM45.9177 3.08913C45.0303 1.34731 43.2481 0.272705 41.2836 0.272705V2.27271C42.5103 2.27271 43.5961 2.93803 44.1356 3.99698L45.9177 3.08913ZM50.624 12.3307L45.9177 3.08925L44.1355 3.99685L48.8418 13.2383L50.624 12.3307ZM51.1743 14.6225C51.1743 13.8293 50.9837 13.0393 50.6246 12.3319L48.8412 13.2371C49.0591 13.6664 49.1743 14.1465 49.1743 14.6225H51.1743ZM45.9899 19.7308C48.8324 19.7308 51.1743 17.4576 51.1743 14.6225H49.1743C49.1743 16.3186 47.7626 17.7308 45.9899 17.7308V19.7308ZM42.2714 19.7308H45.9899V17.7308H42.2714V19.7308ZM43.2714 21.1214V18.7308H41.2714V21.1214H43.2714ZM48.306 23.8774L42.8192 20.2848L41.7237 21.958L47.2104 25.5506L48.306 23.8774ZM47.4896 26.8897L48.5855 25.2758L46.9309 24.1523L45.835 25.7662L47.4896 26.8897ZM41.7237 24.29L46.1145 27.1646L47.21 25.4913L42.8192 22.6167L41.7237 24.29ZM43.2714 25.9709V23.4533H41.2714V25.9709H43.2714ZM48.306 28.7269L42.8192 25.1343L41.7237 26.8075L47.2104 30.4001L48.306 28.7269ZM47.4896 31.7392L48.5855 30.1252L46.9309 29.0017L45.835 30.6157L47.4896 31.7392ZM41.7237 29.1395L46.1145 32.0141L47.21 30.3408L42.8192 27.4662L41.7237 29.1395ZM43.2714 30.8204V28.3028H41.2714V30.8204H43.2714ZM48.306 33.5763L42.8192 29.9838L41.7237 31.657L47.2104 35.2496L48.306 33.5763ZM47.4896 36.5887L48.5855 34.9747L46.9309 33.8512L45.835 35.4652L47.4896 36.5887ZM41.7237 33.9889L46.1145 36.8636L47.21 35.1903L42.8192 32.3156L41.7237 33.9889ZM43.2714 35.6698V33.1523H41.2714V35.6698H43.2714ZM48.3059 38.4248L42.8191 34.8332L41.7238 36.5065L47.2105 40.0982L48.3059 38.4248ZM47.4896 41.4372L48.5855 39.8232L46.9309 38.6997L45.835 40.3137L47.4896 41.4372ZM41.7237 38.8374L46.1145 41.7121L47.21 40.0388L42.8192 37.1642L41.7237 38.8374ZM43.2714 41.116V38.0008H41.2714V41.116H43.2714ZM46.8069 42.2568C45.6332 41.1299 44.1068 40.3649 42.4111 40.1258L42.1318 42.1062C43.4054 42.2858 44.5465 42.8591 45.4218 43.6995L46.8069 42.2568ZM46.2229 41.9781H46.1143V43.9781H46.2229V41.9781ZM35.3686 14.6225C35.3686 14.4469 35.4117 14.2662 35.4936 14.1047L33.7096 13.2005C33.4876 13.6385 33.3686 14.1285 33.3686 14.6225H35.3686ZM36.5773 15.791C35.8943 15.791 35.3686 15.2488 35.3686 14.6225H33.3686C33.3686 16.3878 34.8245 17.791 36.5773 17.791V15.791ZM45.9899 15.791H36.5773V17.791H45.9899V15.791ZM47.1986 14.6225C47.1986 15.2488 46.6729 15.791 45.9899 15.791V17.791C47.7427 17.791 49.1986 16.3878 49.1986 14.6225H47.1986ZM47.0748 14.107C47.1557 14.2655 47.1986 14.445 47.1986 14.6225H49.1986C49.1986 14.1303 49.0814 13.6392 48.8564 13.1982L47.0748 14.107ZM42.3682 4.86493L47.0745 14.1064L48.8567 13.1988L44.1504 3.95732L42.3682 4.86493ZM41.8283 4.35521C42.0783 4.47878 42.2606 4.65384 42.3684 4.86533L44.1502 3.95692C43.821 3.31123 43.2962 2.8498 42.7146 2.5623L41.8283 4.35521ZM40.2957 4.45875H42.2714V2.45875H40.2957V4.45875ZM40.1988 4.86533C40.3066 4.65384 40.4889 4.47878 40.7389 4.35521L39.8526 2.5623C39.271 2.8498 38.7462 3.31123 38.417 3.95692L40.1988 4.86533ZM35.4927 14.1064L40.199 4.86493L38.4168 3.95732L33.7105 13.1988L35.4927 14.1064ZM45.2229 47.8276V48.6995H47.2229V47.8276H45.2229ZM42.0755 44.0568C43.8816 44.4177 45.2229 45.9845 45.2229 47.8276H47.2229C47.2229 44.986 45.1636 42.6344 42.4674 42.0956L42.0755 44.0568ZM43.2714 43.948V43.0762H41.2714V43.948H43.2714ZM46.4188 47.7189C44.6129 47.3579 43.2714 45.7903 43.2714 43.948H41.2714C41.2714 46.7886 43.3306 49.1412 46.0269 49.6801L46.4188 47.7189ZM39.2957 43.948C39.2957 45.7911 37.9544 47.3579 36.1483 47.7189L36.5403 49.6801C39.2365 49.1412 41.2957 46.7896 41.2957 43.948H39.2957ZM39.2957 43.0762V43.948H41.2957V43.0762H39.2957ZM37.3443 47.8276C37.3443 45.9845 38.6856 44.4177 40.4917 44.0568L40.0998 42.0956C37.4036 42.6344 35.3443 44.986 35.3443 47.8276H37.3443ZM37.3443 48.6995V47.8276H35.3443V48.6995H37.3443ZM14.6237 11.9415C14.6237 11.9477 14.6222 11.9551 14.6195 11.9612C14.6171 11.9667 14.6148 11.9691 14.6141 11.9698C14.6135 11.9705 14.6129 11.9709 14.6121 11.9712C14.6107 11.9718 14.6099 11.9716 14.6115 11.9716V9.97164C13.5325 9.97164 12.6237 10.8378 12.6237 11.9415H14.6237ZM14.6237 12.9114V11.9415H12.6237V12.9114H14.6237ZM21.5265 11.9114H13.6237V13.9114H21.5265V11.9114ZM20.5265 11.9415V12.9114H22.5265V11.9415H20.5265ZM20.5386 11.9716C20.5402 11.9716 20.5395 11.9718 20.5381 11.9712C20.5373 11.9709 20.5367 11.9705 20.536 11.9698C20.5353 11.9691 20.533 11.9667 20.5307 11.9612C20.528 11.9551 20.5265 11.9477 20.5265 11.9415H22.5265C22.5265 10.8378 21.6177 9.97164 20.5386 9.97164V11.9716ZM14.6115 11.9716H20.5386V9.97164H14.6115V11.9716ZM13.7267 20.3938L16.04 19.2581L15.1587 17.4628L12.8453 18.5984L13.7267 20.3938ZM12.648 22.0984C12.648 21.3768 13.052 20.7243 13.726 20.3941L12.846 18.5981C11.498 19.2586 10.648 20.6008 10.648 22.0984H12.648ZM12.648 34.8496V22.0984H10.648V34.8496H12.648ZM13.3843 32.74C12.5087 33.0471 11.7141 33.505 11.0158 34.0748L12.2801 35.6244C12.8089 35.193 13.4015 34.8534 14.0463 34.6273L13.3843 32.74ZM13.8916 27.81L12.7354 33.484L14.6952 33.8833L15.8514 28.2093L13.8916 27.81ZM18.2322 22.1681C16.0056 23.2274 14.3949 25.3427 13.8917 27.8098L15.8513 28.2095C16.2347 26.3301 17.4573 24.7515 19.0914 23.9742L18.2322 22.1681ZM20.1484 20.9884C19.4379 21.4736 18.8438 21.8767 18.2316 22.1684L19.092 23.9739C19.869 23.6036 20.5927 23.1069 21.2762 22.6401L20.1484 20.9884ZM22.5265 19.5431C21.6336 19.9762 20.8362 20.5188 20.1484 20.9884L21.2762 22.6401C21.9756 22.1626 22.6581 21.7021 23.3994 21.3425L22.5265 19.5431ZM21.4235 20.3938C21.7094 20.5341 21.9542 20.749 22.1472 21.0212L23.7787 19.8644C23.4102 19.3448 22.9161 18.8985 22.3048 18.5984L21.4235 20.3938ZM19.1101 19.2581L21.4235 20.3938L22.3048 18.5984L19.9915 17.4628L19.1101 19.2581ZM18.5508 14.8512V18.3604H20.5508V14.8512H18.5508ZM15.5994 15.8512H19.5508V13.8512H15.5994V15.8512ZM16.5994 18.3604V14.8512H14.5994V18.3604H16.5994ZM6.72083 49.7674C6.72083 47.6631 8.47165 45.9179 10.6601 45.9179V43.9179C7.40184 43.9179 4.72083 46.524 4.72083 49.7674H6.72083ZM6.72083 52.6771V49.7674H4.72083V52.6771H6.72083ZM51.1621 51.6771H5.72083V53.6771H51.1621V51.6771ZM50.1621 49.7674V52.6771H52.1621V49.7674H50.1621ZM47.3492 46.1029C48.9897 46.5872 50.1621 48.0529 50.1621 49.7674H52.1621C52.1621 47.1022 50.343 44.9014 47.9154 44.1847L47.3492 46.1029ZM49.1986 47.8276C49.1986 46.7304 48.964 45.6866 48.5475 44.7407L46.7171 45.5469C47.026 46.2482 47.1986 47.0182 47.1986 47.8276H49.1986ZM49.1986 50.7373V47.8276H47.1986V50.7373H49.1986ZM47.2107 51.7373H48.1986V49.7373H47.2107V51.7373ZM40.4305 47.9487C41.816 50.2139 44.3334 51.7373 47.2107 51.7373V49.7373C45.0542 49.7373 43.1716 48.5973 42.1367 46.9052L40.4305 47.9487ZM35.3565 51.7373C38.2338 51.7373 40.7512 50.2139 42.1367 47.9487L40.4305 46.9052C39.3955 48.5973 37.513 49.7373 35.3565 49.7373V51.7373ZM34.3686 51.7373H35.3565V49.7373H34.3686V51.7373ZM33.3686 47.8276V50.7373H35.3686V47.8276H33.3686ZM40.1557 40.1259C36.3398 40.6654 33.3686 43.893 33.3686 47.8276H35.3686C35.3686 44.936 37.5596 42.5128 40.4357 42.1062L40.1557 40.1259ZM39.2957 38.0008V41.116H41.2957V38.0008H39.2957ZM36.4515 41.7113L40.8433 38.8376L39.7482 37.164L35.3564 40.0377L36.4515 41.7113ZM33.9807 39.8223L35.0766 41.4362L36.7312 40.3127L35.6353 38.6988L33.9807 39.8223ZM39.7481 34.8322L34.2604 38.4238L35.3557 40.0972L40.8434 36.5056L39.7481 34.8322ZM39.2957 33.1513V35.6689H41.2957V33.1513H39.2957ZM36.4515 36.8618L40.8433 33.9881L39.7482 32.3145L35.3564 35.1882L36.4515 36.8618ZM33.9807 34.9728L35.0766 36.5868L36.7312 35.4633L35.6353 33.8493L33.9807 34.9728ZM39.7481 29.9827L34.2604 33.5743L35.3557 35.2478L40.8434 31.6561L39.7481 29.9827ZM39.2957 28.3019V30.8194H41.2957V28.3019H39.2957ZM36.4515 32.0123L40.8433 29.1386L39.7482 27.4651L35.3564 30.3388L36.4515 32.0123ZM33.9807 30.1233L35.0766 31.7373L36.7312 30.6138L35.6353 28.9998L33.9807 30.1233ZM39.7481 25.1332L34.2604 28.7249L35.3557 30.3983L40.8434 26.8067L39.7481 25.1332ZM39.2957 23.4524V25.9699H41.2957V23.4524H39.2957ZM36.4516 27.1637L40.8434 24.2891L39.7481 22.6157L35.3563 25.4903L36.4516 27.1637ZM33.9807 25.2748L35.0766 26.8888L36.7312 25.7653L35.6353 24.1513L33.9807 25.2748ZM35.3701 23.1506L34.2607 23.8761L35.3554 25.55L36.4648 24.8245L35.3701 23.1506ZM34.477 24.2312C34.7712 24.4329 35.0732 24.6322 35.3739 24.8269L36.461 23.1482C36.1694 22.9593 35.8829 22.7702 35.6079 22.5817L34.477 24.2312ZM30.913 22.6405C32.0945 22.6405 33.0947 23.2866 34.4782 24.2321L35.6067 22.5808C34.3306 21.7088 32.8177 20.6405 30.913 20.6405V22.6405ZM29.4252 23.1739C29.6048 23.073 29.9042 22.93 30.2193 22.8146C30.5586 22.6903 30.8033 22.6405 30.913 22.6405V20.6405C30.4382 20.6405 29.9213 20.7938 29.5315 20.9365C29.1175 21.0881 28.7204 21.2758 28.4456 21.4302L29.4252 23.1739ZM28.8641 23.4907L29.427 23.1729L28.4438 21.4312L27.8809 21.749L28.8641 23.4907ZM27.2612 23.0469L27.7831 23.4277L28.9619 21.812L28.44 21.4312L27.2612 23.0469ZM25.9699 22.6405C26.5065 22.6405 26.8761 22.7639 27.2584 23.0449L28.4428 21.4333C27.6974 20.8855 26.9074 20.6405 25.9699 20.6405V22.6405ZM22.4043 24.2314C23.7883 23.2866 24.7883 22.6405 25.9699 22.6405V20.6405C24.0654 20.6405 22.5524 21.7087 21.2767 22.5796L22.4043 24.2314ZM19.9528 25.7189C20.868 25.2837 21.6854 24.7233 22.4052 24.2308L21.2758 22.5802C20.538 23.085 19.8456 23.5552 19.0938 23.9128L19.9528 25.7189ZM18.2941 27.27C18.698 26.5824 19.2756 26.0412 19.9531 25.7188L19.0935 23.9129C18.0297 24.4192 17.1613 25.2496 16.5695 26.2573L18.2941 27.27ZM19.6605 26.787C19.2001 26.4846 18.5838 26.0864 17.7408 25.8126L17.1229 27.7148C17.6941 27.9003 18.1216 28.169 18.5623 28.4585L19.6605 26.787ZM21.5265 27.4297C21.0441 27.4297 20.7385 27.3585 20.4995 27.2646C20.2404 27.1628 20.0155 27.0196 19.6593 26.7862L18.5634 28.4593C18.8955 28.6768 19.2871 28.937 19.768 29.126C20.2688 29.3228 20.8267 29.4297 21.5265 29.4297V27.4297ZM22.5265 30.3695V28.4297H20.5265V30.3695H22.5265ZM17.4655 30.0722C18.2879 30.611 19.449 31.3695 21.5265 31.3695V29.3695C20.0414 29.3695 19.2846 28.873 18.5616 28.3993L17.4655 30.0722ZM16.4722 29.5434C16.795 29.643 17.0482 29.7995 17.4666 30.0729L18.5605 28.3986C18.157 28.135 17.6876 27.8254 17.062 27.6324L16.4722 29.5434ZM16.7876 33.4982L17.747 28.7875L15.7873 28.3883L14.8279 33.099L16.7876 33.4982ZM15.8123 32.295C15.8025 32.2961 15.7955 32.2969 15.7889 32.2976C15.7826 32.2982 15.7782 32.2987 15.775 32.299C15.7684 32.2996 15.7692 32.2993 15.7743 32.2992L15.8412 34.2981C15.9239 34.2953 15.9989 34.2866 16.0307 34.2831L15.8123 32.295ZM16.0576 32.2792C15.9477 32.2792 15.8491 32.291 15.8122 32.2951L16.0307 34.2831C16.0425 34.2818 16.0503 34.2809 16.0575 34.2802C16.0643 34.2795 16.0683 34.2791 16.0706 34.2789C16.0753 34.2786 16.0695 34.2792 16.0576 34.2792V32.2792ZM19.4612 32.2792H16.0576V34.2792H19.4612V32.2792ZM21.4243 33.5689L20.0859 32.4983L18.8366 34.0601L20.175 35.1307L21.4243 33.5689ZM22.9852 34.3246L21.2468 33.4554L20.3524 35.2442L22.0907 36.1134L22.9852 34.3246ZM16.0576 36.219H22.538V34.219H16.0576V36.219ZM12.2831 38.9669C12.783 37.3306 14.2888 36.219 16.0576 36.219V34.219C13.4302 34.219 11.1332 35.8854 10.3703 38.3825L12.2831 38.9669ZM10.9586 43.3034L12.2831 38.9668L10.3703 38.3826L9.04579 42.7192L10.9586 43.3034ZM10.6601 41.9781C10.3994 41.9781 10.1494 41.9931 9.90898 42.0156L10.0954 44.0069C10.29 43.9887 10.476 43.9781 10.6601 43.9781V41.9781ZM20.5386 41.9781H10.6601V43.9781H20.5386V41.9781ZM21.5386 44.9179V42.9781H19.5386V44.9179H21.5386ZM10.6601 45.9179H20.5386V43.9179H10.6601V45.9179ZM25.159 36.219H26.4658V34.219H25.159V36.219ZM27.4658 35.219V33.2792H25.4658V35.219H27.4658ZM26.4658 32.2792H25.159V34.2792H26.4658V32.2792ZM24.159 33.2792V35.219H26.159V33.2792H24.159Z" fill="#322153" mask="url(#path-3-inside-1)"/>
</svg>
