<svg width="1440" height="1245" viewBox="0 0 1440 1245" fill="none" xmlns="http://www.w3.org/2000/svg">
<path fill-rule="evenodd" clip-rule="evenodd" d="M998.403 1201H973.967C896.319 1197.8 809.712 1163.7 717.568 1077.17C394.039 773.348 659.336 603.782 777.18 528.462C787.465 521.889 796.626 516.033 804.175 510.869C837.263 488.232 861.799 438.801 887.894 386.228C935.97 289.372 989.337 181.855 1111.23 211.591C1218.39 237.802 1379.45 349.332 1440 516.181V793.297C1420.48 850.684 1388.28 911.026 1340.4 973.739C1340.4 973.739 1203.67 1192.54 998.403 1201Z" fill="url(#paint0_linear)"/>
<mask id="mask0" mask-type="alpha" maskUnits="userSpaceOnUse" x="704" y="9" width="434" height="434">
<ellipse cx="920.626" cy="225.626" rx="150" ry="156.356" transform="rotate(45 920.626 225.626)" fill="#E8E8EE"/>
</mask>
<g mask="url(#mask0)">
<path d="M859.89 65.3858L1081.01 286.506" stroke="#D1D1D3"/>
<path d="M882.002 43.2737L1103.12 264.394" stroke="#D1D1D3"/>
<path d="M870.946 54.3297L1092.07 275.45" stroke="#D1D1D3"/>
<path d="M893.058 32.2177L1114.18 253.338" stroke="#D1D1D3"/>
<path d="M915.17 10.1055L1136.29 231.226" stroke="#D1D1D3"/>
<path d="M904.114 21.1616L1125.23 242.282" stroke="#D1D1D3"/>
<path d="M793.553 131.722L1014.67 352.843" stroke="#D1D1D3"/>
<path d="M815.666 109.61L1036.79 330.731" stroke="#D1D1D3"/>
<path d="M804.61 120.666L1025.73 341.787" stroke="#D1D1D3"/>
<path d="M826.722 98.5539L1047.84 319.675" stroke="#D1D1D3"/>
<path d="M848.833 76.4418L1069.95 297.562" stroke="#D1D1D3"/>
<path d="M837.778 87.4978L1058.9 308.618" stroke="#D1D1D3"/>
<path d="M727.217 198.058L948.338 419.179" stroke="#D1D1D3"/>
<path d="M749.33 175.946L970.45 397.067" stroke="#D1D1D3"/>
<path d="M738.273 187.002L959.394 408.123" stroke="#D1D1D3"/>
<path d="M760.385 164.89L981.506 386.011" stroke="#D1D1D3"/>
<path d="M782.498 142.778L1003.62 363.899" stroke="#D1D1D3"/>
<path d="M771.441 153.834L992.562 374.955" stroke="#D1D1D3"/>
<path d="M716.161 209.114L937.282 430.235" stroke="#D1D1D3"/>
<path d="M705.105 220.17L926.226 441.291" stroke="#D1D1D3"/>
</g>
<mask id="mask1" mask-type="alpha" maskUnits="userSpaceOnUse" x="515" y="811" width="434" height="434">
<ellipse cx="731.626" cy="1027.63" rx="150" ry="156.356" transform="rotate(45 731.626 1027.63)" fill="#E8E8EE"/>
</mask>
<g mask="url(#mask1)">
<path d="M670.89 867.386L892.01 1088.51" stroke="#D1D1D3"/>
<path d="M693.002 845.274L914.123 1066.39" stroke="#D1D1D3"/>
<path d="M681.946 856.33L903.066 1077.45" stroke="#D1D1D3"/>
<path d="M704.058 834.218L925.178 1055.34" stroke="#D1D1D3"/>
<path d="M726.17 812.105L947.291 1033.23" stroke="#D1D1D3"/>
<path d="M715.114 823.162L936.234 1044.28" stroke="#D1D1D3"/>
<path d="M604.553 933.722L825.674 1154.84" stroke="#D1D1D3"/>
<path d="M626.666 911.61L847.786 1132.73" stroke="#D1D1D3"/>
<path d="M615.61 922.666L836.731 1143.79" stroke="#D1D1D3"/>
<path d="M637.722 900.554L858.842 1121.67" stroke="#D1D1D3"/>
<path d="M659.833 878.442L880.954 1099.56" stroke="#D1D1D3"/>
<path d="M648.778 889.498L869.899 1110.62" stroke="#D1D1D3"/>
<path d="M538.217 1000.06L759.338 1221.18" stroke="#D1D1D3"/>
<path d="M560.33 977.946L781.45 1199.07" stroke="#D1D1D3"/>
<path d="M549.273 989.002L770.394 1210.12" stroke="#D1D1D3"/>
<path d="M571.385 966.89L792.506 1188.01" stroke="#D1D1D3"/>
<path d="M593.498 944.778L814.618 1165.9" stroke="#D1D1D3"/>
<path d="M582.441 955.834L803.562 1176.95" stroke="#D1D1D3"/>
<path d="M527.161 1011.11L748.282 1232.23" stroke="#D1D1D3"/>
<path d="M516.105 1022.17L737.226 1243.29" stroke="#D1D1D3"/>
</g>
<g opacity="0.1">
<path d="M195.835 25.5992L134.645 146.519C130.694 154.327 133.296 164.088 140.497 168.477L236.31 226.881C243.61 231.331 252.891 228.594 257.043 220.767L374.157 0.007809H235.935C219.204 0.007809 203.815 9.82832 195.835 25.5992Z" fill="#A0A0B2"/>
<path d="M374.157 0L257.047 220.762C252.888 228.588 243.613 231.331 236.315 226.884L211.307 211.646C217.404 212.699 223.747 209.693 226.976 203.598L335.005 0H374.157Z" fill="#A0A0B2"/>
<path d="M502.295 117.082L460.091 26.9752C452.348 10.4432 436.571 0.00815346 419.321 0.00815346H297.297L390.987 170.472C390.68 170.62 390.371 170.768 390.064 170.916C384.17 173.761 384.411 182.827 390.445 185.312L471.346 218.63C475.095 220.174 479.301 218.166 480.74 214.147L511.928 127.052C514.233 120.61 508.178 114.393 502.295 117.082Z" fill="#A0A0B2"/>
<path d="M511.929 127.045L480.733 214.139C479.3 218.17 475.088 220.179 471.342 218.628L446.864 208.542L476.044 127.045C477.703 122.424 475.054 117.923 471.252 116.742C467.632 115.617 464.541 113.074 462.85 109.462L424.207 26.9724C416.469 10.4458 400.697 0 383.44 0H419.324C436.569 0 452.341 10.4458 460.091 26.9724L502.293 117.086C508.183 114.398 514.229 120.604 511.929 127.045Z" fill="#A0A0B2"/>
<path d="M420.769 464.491C419.633 459.489 413.614 457.345 409.94 461.284L346.709 529.094C344.186 531.8 344.186 536.185 346.709 538.889L410.185 606.96C413.832 610.872 419.79 608.784 420.988 603.866H514.333C531.518 603.866 547.246 593.51 555.021 577.075L608.283 464.49L420.769 464.491Z" fill="#A0A0B2"/>
<path d="M499.568 464.492L529.834 513.607C536.677 524.71 537.434 538.9 531.818 550.768L519.369 577.076C511.606 593.506 495.872 603.869 478.693 603.869H514.332C531.512 603.869 547.246 593.506 555.023 577.076L608.281 464.494L499.568 464.492Z" fill="#A0A0B2"/>
<path d="M293.382 590.921V471.082C293.382 462.075 286.573 454.772 278.173 454.772H27.6537L92.1246 581.706C100.116 597.439 115.485 607.23 132.191 607.23H278.173C286.572 607.232 293.382 599.93 293.382 590.921Z" fill="#A0A0B2"/>
<path d="M133.9 454.783L78.2636 554.428L27.6533 454.783H133.9Z" fill="#A0A0B2"/>
<path d="M293.376 471.084V590.927C293.376 599.931 286.569 607.23 278.173 607.23L238.271 607.231C246.667 607.231 253.474 599.931 253.474 590.927V471.084C253.474 462.08 246.667 454.779 238.271 454.779H278.172C286.569 454.778 293.376 462.08 293.376 471.084Z" fill="#A0A0B2"/>
<path d="M170.995 348.881L159.745 258.086C159.19 253.6 155.348 250.448 151.166 251.044L66.1774 263.155C59.7775 264.066 57.3925 272.416 61.7762 277.06L8.139 359.969C-1.69541 375.17 -2.69352 395.018 5.55845 411.265L63.9267 526.184L158.7 356.411C158.733 356.438 158.766 356.466 158.8 356.493C164.209 360.896 171.889 356.1 170.995 348.881Z" fill="#A0A0B2"/>
<path d="M158.796 356.494C158.77 356.466 158.733 356.439 158.706 356.411L63.9295 526.179L44.4375 487.806L123.717 345.767C124.887 343.672 127.173 342.767 129.409 343.232C129.42 343.235 129.431 343.236 129.442 343.239C134.199 344.148 139.078 339.899 138.346 334.067L128.464 254.274L151.16 251.046C155.346 250.451 159.195 253.609 159.751 258.083L171.002 348.89C171.895 356.105 164.208 360.898 158.796 356.494Z" fill="#A0A0B2"/>
<path d="M633.925 353.73L560.555 239.72C556.055 232.726 547.3 230.61 540.438 234.857L444.822 294.029C437.233 298.725 434.905 309.309 439.736 317.149L574.526 535.852L637.064 403.66C644.632 387.659 643.429 368.498 633.925 353.73Z" fill="#A0A0B2"/>
<path d="M637.062 403.663L574.516 535.848L553.538 501.797L599.964 403.662C607.534 387.661 606.332 368.503 596.825 353.735L526.051 243.77L540.441 234.863C547.299 230.61 556.058 232.729 560.553 239.726L633.925 353.736C643.43 368.504 644.632 387.664 637.062 403.663Z" fill="#A0A0B2"/>
</g>
<circle cx="542.667" cy="675.667" r="4.66667" fill="#DEDEE3"/>
<circle cx="562.889" cy="675.667" r="4.66667" fill="#DEDEE3"/>
<circle cx="562.889" cy="695.889" r="4.66667" fill="#DEDEE3"/>
<circle cx="583.111" cy="675.667" r="4.66667" fill="#DEDEE3"/>
<circle cx="603.333" cy="675.667" r="4.66667" fill="#DEDEE3"/>
<circle cx="583.111" cy="695.889" r="4.66667" fill="#DEDEE3"/>
<circle cx="603.333" cy="695.889" r="4.66667" fill="#DEDEE3"/>
<circle cx="542.667" cy="716.111" r="4.66667" fill="#DEDEE3"/>
<circle cx="562.889" cy="716.111" r="4.66667" fill="#DEDEE3"/>
<circle cx="562.889" cy="736.333" r="4.66667" fill="#DEDEE3"/>
<circle cx="583.111" cy="716.111" r="4.66667" fill="#DEDEE3"/>
<circle cx="603.333" cy="716.111" r="4.66667" fill="#DEDEE3"/>
<circle cx="583.111" cy="736.333" r="4.66667" fill="#DEDEE3"/>
<circle cx="603.333" cy="736.333" r="4.66667" fill="#DEDEE3"/>
<circle cx="623.555" cy="675.667" r="4.66667" fill="#DEDEE3"/>
<circle cx="623.555" cy="695.889" r="4.66667" fill="#DEDEE3"/>
<circle cx="643.778" cy="695.889" r="4.66667" fill="#DEDEE3"/>
<circle cx="623.555" cy="716.111" r="4.66667" fill="#DEDEE3"/>
<circle cx="623.555" cy="736.333" r="4.66667" fill="#DEDEE3"/>
<circle cx="643.778" cy="736.333" r="4.66667" fill="#DEDEE3"/>
<circle cx="215.667" cy="918.667" r="4.66667" fill="#DEDEE3"/>
<circle cx="235.889" cy="918.667" r="4.66667" fill="#DEDEE3"/>
<circle cx="235.889" cy="938.889" r="4.66667" fill="#DEDEE3"/>
<circle cx="256.111" cy="918.667" r="4.66667" fill="#DEDEE3"/>
<circle cx="276.333" cy="918.667" r="4.66667" fill="#DEDEE3"/>
<circle cx="256.111" cy="938.889" r="4.66667" fill="#DEDEE3"/>
<circle cx="276.333" cy="938.889" r="4.66667" fill="#DEDEE3"/>
<circle cx="215.667" cy="959.111" r="4.66667" fill="#DEDEE3"/>
<circle cx="235.889" cy="959.111" r="4.66667" fill="#DEDEE3"/>
<circle cx="235.889" cy="979.333" r="4.66667" fill="#DEDEE3"/>
<circle cx="256.111" cy="959.111" r="4.66667" fill="#DEDEE3"/>
<circle cx="276.333" cy="959.111" r="4.66667" fill="#DEDEE3"/>
<circle cx="256.111" cy="979.333" r="4.66667" fill="#DEDEE3"/>
<circle cx="276.333" cy="979.333" r="4.66667" fill="#DEDEE3"/>
<circle cx="296.555" cy="918.667" r="4.66667" fill="#DEDEE3"/>
<circle cx="296.555" cy="938.889" r="4.66667" fill="#DEDEE3"/>
<circle cx="316.778" cy="938.889" r="4.66667" fill="#DEDEE3"/>
<circle cx="296.555" cy="959.111" r="4.66667" fill="#DEDEE3"/>
<circle cx="296.555" cy="979.333" r="4.66667" fill="#DEDEE3"/>
<circle cx="316.778" cy="979.333" r="4.66667" fill="#DEDEE3"/>
<circle cx="341.667" cy="938.667" r="4.66667" fill="#DEDEE3"/>
<circle cx="361.889" cy="938.667" r="4.66667" fill="#DEDEE3"/>
<circle cx="361.889" cy="958.889" r="4.66667" fill="#DEDEE3"/>
<circle cx="382.111" cy="938.667" r="4.66667" fill="#DEDEE3"/>
<circle cx="402.333" cy="938.667" r="4.66667" fill="#DEDEE3"/>
<circle cx="382.111" cy="958.889" r="4.66667" fill="#DEDEE3"/>
<circle cx="402.333" cy="958.889" r="4.66667" fill="#DEDEE3"/>
<circle cx="341.667" cy="979.111" r="4.66667" fill="#DEDEE3"/>
<circle cx="361.889" cy="979.111" r="4.66667" fill="#DEDEE3"/>
<circle cx="361.889" cy="999.333" r="4.66667" fill="#DEDEE3"/>
<circle cx="382.111" cy="979.111" r="4.66667" fill="#DEDEE3"/>
<circle cx="402.333" cy="979.111" r="4.66667" fill="#DEDEE3"/>
<circle cx="382.111" cy="999.333" r="4.66667" fill="#DEDEE3"/>
<circle cx="402.333" cy="999.333" r="4.66667" fill="#DEDEE3"/>
<circle cx="422.555" cy="938.667" r="4.66667" fill="#DEDEE3"/>
<circle cx="422.555" cy="958.889" r="4.66667" fill="#DEDEE3"/>
<circle cx="442.778" cy="958.889" r="4.66667" fill="#DEDEE3"/>
<circle cx="422.555" cy="979.111" r="4.66667" fill="#DEDEE3"/>
<circle cx="422.555" cy="999.333" r="4.66667" fill="#DEDEE3"/>
<circle cx="442.778" cy="999.333" r="4.66667" fill="#DEDEE3"/>
<defs>
<linearGradient id="paint0_linear" x1="931.5" y1="313.5" x2="1430" y2="812" gradientUnits="userSpaceOnUse">
<stop stop-color="white"/>
<stop offset="1" stop-color="white" stop-opacity="0"/>
</linearGradient>
</defs>
</svg>
